# xmcd CD database file
#
# Track frame offsets:
#	187
#	21675
#	45550
#	71262
#	97175
#	127275
#	157162
#
# Disc length: 2427 seconds
#
# Revision: 0
# Processed by: cddbd v1.5.1PL0 Copyright (c) Steve Scherf et al.
# Submitted via: CDex 1.51
#
DISCID=68097907
DTITLE=Tal Farlow - Swinging Guitar of Tal Farlow
DYEAR=1956
DGENRE=Jazz
TTITLE0=Taking a Chance on Love
TTITLE1=Yardbird Suite
TTITLE2=You Stepped Out of a Dream
TTITLE3=They Can't Take That Away from Me
TTITLE4=Like Someone in Love
TTITLE5=Meteor
TTITLE6=I Love You
EXTD=YEAR: 1956
EXTT0=
EXTT1=
EXTT2=
EXTT3=
EXTT4=
EXTT5=
EXTT6=
PLAYORDER=
